<svg width="44" height="27" viewBox="0 0 44 27" fill="none" xmlns="http://www.w3.org/2000/svg">
<path d="M20.2326 26.209H16.7346L3.23457 5.87109V26.209H0.00019455V0.439453H3.48066L16.9807 20.7773V0.439453H20.2326V26.209ZM33.2088 26.6484C29.5643 26.6484 26.6521 25.4531 24.4725 23.0625C22.3045 20.6602 21.2205 17.4141 21.2205 13.3242C21.2205 9.23438 22.3045 5.99414 24.4725 3.60352C26.6521 1.20117 29.5643 0 33.2088 0C36.0096 0 38.3943 0.755859 40.3631 2.26758C42.3318 3.7793 43.4393 5.77148 43.6854 8.24414H40.1697C40.0291 6.61523 39.3201 5.32031 38.0428 4.35938C36.7771 3.39844 35.1775 2.91797 33.2439 2.91797C30.6307 2.91797 28.5623 3.82031 27.0389 5.625C25.5154 7.41797 24.7537 9.98438 24.7537 13.3242C24.7537 16.6523 25.5096 19.2188 27.0213 21.0234C28.533 22.8281 30.5838 23.7305 33.1736 23.7305C35.1893 23.7305 36.8182 23.2383 38.0604 22.2539C39.3025 21.2695 40.0057 19.8633 40.1697 18.0352H43.6854C43.4393 20.7773 42.3611 22.8984 40.451 24.3984C38.5408 25.8984 36.1268 26.6484 33.2088 26.6484Z" fill="black"/>
</svg>
